<svg width="171" height="132" viewBox="0 0 171 132" fill="none" xmlns="http://www.w3.org/2000/svg">
<path d="M171 66.5001C170.993 78.5374 167.645 90.3407 161.32 100.616C154.996 110.892 145.941 119.244 135.147 124.756C134.661 125.009 134.172 125.251 133.679 125.483L133.577 125.534L133.226 125.701C132.935 125.842 132.65 125.973 132.354 126.105C130.51 126.943 128.617 127.696 126.678 128.363C125.577 128.743 124.464 129.095 123.34 129.419L121.995 129.787C107.027 133.739 91.1354 132.368 77.081 125.913C76.5052 125.645 75.9294 125.372 75.3638 125.089L74.3446 124.584C64.2574 119.344 55.7007 111.618 49.4979 102.15C48.8457 101.163 48.224 100.153 47.6329 99.1188C47.1064 98.2196 46.5968 97.3086 46.1042 96.3858C41.3168 87.1396 38.8272 76.8932 38.8428 66.5001C38.8428 65.2742 38.8768 64.0551 38.9447 62.8427C39.9001 45.8105 47.5203 29.8198 60.1848 18.2714C72.8493 6.72309 89.5586 0.528387 106.759 1.00483C123.96 1.48127 140.294 8.59126 152.288 20.8226C164.282 33.054 170.99 49.4416 170.985 66.5001H171Z" fill="url(#paint0_linear_5_772)"/>
<path d="M91.9452 64.1711C91.9452 64.1711 77.1676 57.2251 75.8835 47.6673C74.5994 38.1096 75.5013 28.9761 82.8646 26.42C82.8646 26.42 87.5221 11.6994 104.032 17.6149C120.542 23.5304 117.938 41.2921 126.963 43.4189C135.987 45.5456 152.839 36.589 156.054 47.5158C159.27 58.4426 148.696 57.7757 141.669 67.0506C134.642 76.3255 145.496 81.1953 143.509 87.5806C141.521 93.9659 134.015 98.3558 134.015 98.3558L91.9452 64.1711Z" fill="url(#paint1_linear_5_772)"/>
<path d="M71.7101 85.1355L75.8835 96.3856H76.337L82.8646 67.0505C78.7422 70.6322 71.7101 85.1355 71.7101 85.1355Z" fill="url(#paint2_linear_5_772)"/>
<path d="M64.3825 100.654L61.7378 101.973C58.4562 103.923 53.5541 103.367 53.5541 103.367C56.2039 106.322 71.1241 109.666 75.3179 109.581L76.0924 99.1135H66.7979L64.3825 100.654Z" fill="url(#paint3_linear_5_772)"/>
<path d="M133.679 125.468L133.577 125.519L133.226 125.685C132.935 125.827 132.65 125.958 132.354 126.089C130.509 126.928 128.617 127.681 126.678 128.348C125.577 128.728 124.464 129.08 123.34 129.403L121.995 129.772C107.027 133.724 91.1354 132.353 77.081 125.898C76.5052 125.63 75.9294 125.357 75.3638 125.074L74.3446 124.569C74.4873 120.235 74.7064 115.047 75.0275 109.576C75.2313 106.156 75.481 102.624 75.7765 99.1186C75.853 98.2042 75.9345 97.2949 76.016 96.3856C77.2186 83.4634 79.1448 71.4809 82.2328 67.6719L82.2787 67.6214C82.6707 67.0865 83.2238 66.6885 83.8583 66.4848C88.3171 65.434 91.4611 65.0804 91.9554 64.1711C92.4497 63.2618 91.9554 61.4735 91.9554 61.4735L92.8421 61.3523C94.1313 61.1603 96.6333 60.7562 99.0028 60.15C99.0177 60.1546 99.0337 60.1546 99.0486 60.15C101.143 59.6094 103.125 58.9123 104.093 58.0737L106.081 63.3123C106.081 63.3123 121.026 61.4381 126.861 67.0708C126.897 67.097 126.929 67.1276 126.958 67.1617C127.019 67.2168 127.077 67.2759 127.131 67.3385C127.478 67.7024 127.787 68.1001 128.053 68.5256C129.954 71.5566 131.299 83.7211 132.232 96.9161C132.446 99.9471 132.64 103.079 132.808 106.145C133.195 113.228 133.485 120.088 133.679 125.468Z" fill="url(#paint4_linear_5_772)"/>
<path opacity="0.15" d="M133.577 125.534L133.225 125.701C132.935 125.842 132.65 125.973 132.354 126.105C130.509 126.943 128.617 127.696 126.678 128.363C125.577 128.743 124.464 129.095 123.34 129.419C116.456 122.149 113.724 112.713 113.724 112.713L132.797 106.146L133.577 125.534Z" fill="black"/>
<path d="M126.856 67.0505C133.761 73.7693 135.264 87.8735 133.99 98.3709C132.716 108.868 130.351 118.699 125.439 118.396C120.527 118.093 103.528 106.403 96.9593 100.028L100.796 92.7282L114.677 98.4619V83.1805L126.856 67.0505Z" fill="url(#paint5_linear_5_772)"/>
<path d="M126.856 67.0505C133.761 73.7693 135.264 87.8735 133.99 98.3709C132.716 108.868 130.351 118.699 125.439 118.396C120.527 118.093 103.528 106.403 96.9593 100.028L100.796 92.7282L114.677 98.4619V83.1805L126.856 67.0505Z" fill="url(#paint6_linear_5_772)"/>
<g filter="url(#filter0_d_5_772)">
<path d="M91.1451 96.3857H27.4539V99.1187H91.1451V96.3857Z" fill="url(#paint7_linear_5_772)"/>
<path d="M63.4347 62.8425H15L27.4539 96.3856H75.8835L63.4347 62.8425Z" fill="url(#paint8_linear_5_772)"/>
</g>
<path d="M41.9971 99.1187C41.9971 99.1187 50.354 103.266 55.6638 103.367C60.9735 103.468 66.803 99.1187 66.803 99.1187H41.9971Z" fill="url(#paint9_linear_5_772)"/>
<path d="M100.796 92.7284C100.796 92.7284 93.4484 89.0508 90.284 88.6466C87.1196 88.2425 77.295 96.3858 77.295 96.3858H91.1554L96.9747 100.028L100.796 92.7284Z" fill="url(#paint10_linear_5_772)"/>
<path d="M103.472 49.789C103.508 52.5552 103.712 55.3167 104.083 58.0586C100.796 59.8924 96.9492 60.8775 92.8319 61.3574L92.5924 58.0586L92.4497 56.038V55.9723C91.656 55.9546 90.8736 55.783 90.1465 55.4671C85.173 53.3404 84.1029 42.944 84.1029 42.944C86.0954 42.8632 88.6891 39.3018 88.6891 39.3018C90.1413 41.5043 96.8779 45.7578 100.786 44.6161C104.695 43.4744 104.389 40.7415 104.389 40.7415C105.096 41.037 105.707 41.5193 106.157 42.1357C106.606 42.7522 106.876 43.4791 106.937 44.2372C107.146 46.9045 103.472 49.789 103.472 49.789Z" fill="url(#paint11_linear_5_772)"/>
<path opacity="0.15" d="M100.134 52.7241C99.2117 54.2699 95.0383 56.7301 92.5975 58.0688L92.4548 56.0481C92.6076 56.0481 92.7554 55.9976 92.8981 55.9673C94.8908 55.6177 96.8035 54.9143 98.5441 53.8911C98.5649 53.883 98.584 53.871 98.6002 53.8557C99.1233 53.5491 99.6133 53.1903 100.063 52.7847L100.134 52.7241Z" fill="black"/>
<path opacity="0.15" d="M108.95 96.1027L119.763 100.488L114.667 96.8453V83.2058C114.667 83.2058 113.072 95.057 108.95 96.1027Z" fill="black"/>
<defs>
<filter id="filter0_d_5_772" x="0" y="47.8425" width="116.145" height="76.2761" filterUnits="userSpaceOnUse" color-interpolation-filters="sRGB">
<feFlood flood-opacity="0" result="BackgroundImageFix"/>
<feColorMatrix in="SourceAlpha" type="matrix" values="0 0 0 0 0 0 0 0 0 0 0 0 0 0 0 0 0 0 127 0" result="hardAlpha"/>
<feOffset dx="5" dy="5"/>
<feGaussianBlur stdDeviation="10"/>
<feColorMatrix type="matrix" values="0 0 0 0 0 0 0 0 0 0 0 0 0 0 0 0 0 0 0.2 0"/>
<feBlend mode="normal" in2="BackgroundImageFix" result="effect1_dropShadow_5_772"/>
<feBlend mode="normal" in="SourceGraphic" in2="effect1_dropShadow_5_772" result="shape"/>
</filter>
<linearGradient id="paint0_linear_5_772" x1="105.193" y1="8.09373" x2="102.971" y2="137.225" gradientUnits="userSpaceOnUse">
<stop stop-color="white" stop-opacity="0"/>
<stop offset="1" stop-color="#64B5F6" stop-opacity="0.6"/>
</linearGradient>
<linearGradient id="paint1_linear_5_772" x1="75.3994" y1="57.2807" x2="156.656" y2="57.2807" gradientUnits="userSpaceOnUse">
<stop stop-color="#EF9A9A"/>
<stop offset="1" stop-color="#D81B60"/>
</linearGradient>
<linearGradient id="paint2_linear_5_772" x1="76.6836" y1="82.8825" x2="74.2744" y2="110.514" gradientUnits="userSpaceOnUse">
<stop stop-color="#7E57C2"/>
<stop offset="1" stop-color="#4527A0"/>
</linearGradient>
<linearGradient id="paint3_linear_5_772" x1="6813.02" y1="2527.43" x2="6789.49" y2="3103.43" gradientUnits="userSpaceOnUse">
<stop stop-color="#7E57C2"/>
<stop offset="1" stop-color="#4527A0"/>
</linearGradient>
<linearGradient id="paint4_linear_5_772" x1="20341.2" y1="14858" x2="24468.7" y2="22492.9" gradientUnits="userSpaceOnUse">
<stop stop-color="#7E57C2"/>
<stop offset="1" stop-color="#4527A0"/>
</linearGradient>
<linearGradient id="paint5_linear_5_772" x1="13960.4" y1="9770.53" x2="17624.5" y2="15926.1" gradientUnits="userSpaceOnUse">
<stop stop-color="#7E57C2"/>
<stop offset="1" stop-color="#4527A0"/>
</linearGradient>
<linearGradient id="paint6_linear_5_772" x1="118.759" y1="72.7488" x2="113.038" y2="119.812" gradientUnits="userSpaceOnUse">
<stop offset="0.14" stop-color="#7E57C2" stop-opacity="0"/>
<stop offset="0.26" stop-color="#724DBB" stop-opacity="0.21"/>
<stop offset="0.48" stop-color="#5F3DAF" stop-opacity="0.55"/>
<stop offset="0.66" stop-color="#5131A7" stop-opacity="0.79"/>
<stop offset="0.81" stop-color="#482AA2" stop-opacity="0.94"/>
<stop offset="0.91" stop-color="#4527A0"/>
</linearGradient>
<linearGradient id="paint7_linear_5_772" x1="27.4539" y1="97.7497" x2="91.1451" y2="97.7497" gradientUnits="userSpaceOnUse">
<stop stop-color="#D2D4D5"/>
<stop offset="1" stop-color="#AAACAE"/>
</linearGradient>
<linearGradient id="paint8_linear_5_772" x1="537.989" y1="4198.71" x2="4142.02" y2="8332.05" gradientUnits="userSpaceOnUse">
<stop stop-color="#D2D4D5"/>
<stop offset="1" stop-color="#AAACAE"/>
</linearGradient>
<linearGradient id="paint9_linear_5_772" x1="43.5767" y1="94.557" x2="63.884" y2="103.338" gradientUnits="userSpaceOnUse">
<stop stop-color="#FFF8E1"/>
<stop offset="1" stop-color="#FFCC80"/>
</linearGradient>
<linearGradient id="paint10_linear_5_772" x1="7875.06" y1="2941.73" x2="8393.29" y2="3509.97" gradientUnits="userSpaceOnUse">
<stop stop-color="#FFF8E1"/>
<stop offset="1" stop-color="#FFCC80"/>
</linearGradient>
<linearGradient id="paint11_linear_5_772" x1="8044.47" y1="3227.22" x2="8499.41" y2="4088.69" gradientUnits="userSpaceOnUse">
<stop stop-color="#FFF8E1"/>
<stop offset="1" stop-color="#FFCC80"/>
</linearGradient>
</defs>
</svg>
