<svg width="329" height="425" viewBox="0 0 329 425" fill="none" xmlns="http://www.w3.org/2000/svg">
<g filter="url(#filter0_d_5_769)">
<rect x="103" y="133.244" width="88" height="88" rx="10" fill="white"/>
</g>
<path d="M143 193.244V181.244H151V193.244H161V177.244H167L147 159.244L127 177.244H133V193.244H143Z" fill="#5A98D0"/>
<g filter="url(#filter1_d_5_769)">
<path d="M90.4226 10H62.992C59.2067 10 56.1382 12.2858 56.1382 15.1054V35.5386C56.1382 38.3583 59.2067 40.6441 62.992 40.6441H90.4226C94.2078 40.6441 97.2764 38.3583 97.2764 35.5386V15.1054C97.2764 12.2858 94.2078 10 90.4226 10Z" fill="#56CCF2"/>
</g>
<path d="M87 24.2509H82.83L86.07 21.8208L84.66 20.7557L80 24.2509H78V22.7508L82.66 19.2556L81.24 18.198L78 20.6282V17.5005H76V20.6282L72.76 18.198L71.34 19.2556L76 22.7508V24.2509H74L69.34 20.7557L67.93 21.8208L71.17 24.2509H67V25.751H71.17L67.93 28.1812L69.34 29.2462L74 25.751H76V27.2511L71.34 30.7463L72.76 31.8039L76 29.3738V32.5015H78V29.3738L81.24 31.8039L82.66 30.7463L78 27.2511V25.751H80L84.66 29.2462L86.07 28.1812L82.83 25.751H87V24.2509Z" fill="white"/>
<g filter="url(#filter2_d_5_769)">
<path d="M264.284 87.2549H236.854C233.069 87.2549 230 89.5407 230 92.3603V112.794C230 115.613 233.069 117.899 236.854 117.899H264.284C268.07 117.899 271.138 115.613 271.138 112.794V92.3603C271.138 89.5407 268.07 87.2549 264.284 87.2549Z" fill="#F2C94C"/>
</g>
<path d="M260 100.006C260 96.2556 256 93.2554 251 93.2554C246 93.2554 242 96.2556 242 100.006C242 102.331 243.6 104.431 246 105.631V107.506C246 108.481 246.8 109.306 248 109.606V109.756C248 111.032 249.3 112.007 251 112.007C252.7 112.007 254 111.032 254 109.756V109.606C255.2 109.306 256 108.481 256 107.506V105.631C258.4 104.431 260 102.331 260 100.006ZM244 100.006C244 97.0806 247.1 94.7555 251 94.7555C254.9 94.7555 258 97.0806 258 100.006C258 102.631 255.4 104.806 252 105.181V103.306L253.7 102.031C254.1 101.731 254.1 101.281 253.7 100.981C253.3 100.681 252.7 100.681 252.3 100.981L251 101.956L249.7 100.981C249.3 100.681 248.7 100.681 248.3 100.981C247.9 101.281 247.9 101.731 248.3 102.031L250 103.306V105.181C246.6 104.806 244 102.631 244 100.006ZM251 110.506C250.4 110.506 250 110.206 250 109.756H252C252 110.206 251.6 110.506 251 110.506ZM254 107.506C254 107.956 253.6 108.256 253 108.256H249C248.4 108.256 248 107.956 248 107.506V106.381C248.9 106.606 249.9 106.756 251 106.756C252.1 106.756 253.1 106.606 254 106.381V107.506Z" fill="white"/>
<g filter="url(#filter3_d_5_769)">
<path d="M44.2844 87.2549H16.8538C13.0686 87.2549 10 89.5407 10 92.3603V112.794C10 115.613 13.0686 117.899 16.8538 117.899H44.2844C48.0696 117.899 51.1382 115.613 51.1382 112.794V92.3603C51.1382 89.5407 48.0696 87.2549 44.2844 87.2549Z" fill="#F58A8A"/>
</g>
<path d="M37 99.2557H36V97.7556C36 95.6855 33.76 94.0054 31 94.0054C28.24 94.0054 26 95.6855 26 97.7556V99.2557H25C23.9 99.2557 23 99.9308 23 100.756V108.256C23 109.081 23.9 109.756 25 109.756H37C38.1 109.756 39 109.081 39 108.256V100.756C39 99.9308 38.1 99.2557 37 99.2557ZM31 106.006C29.9 106.006 29 105.331 29 104.506C29 103.681 29.9 103.006 31 103.006C32.1 103.006 33 103.681 33 104.506C33 105.331 32.1 106.006 31 106.006ZM34.1 99.2557H27.9V97.7556C27.9 96.473 29.29 95.4305 31 95.4305C32.71 95.4305 34.1 96.473 34.1 97.7556V99.2557Z" fill="white"/>
<g filter="url(#filter4_d_5_769)">
<path d="M218.284 10H190.854C187.069 10 184 12.2858 184 15.1054V35.5386C184 38.3583 187.069 40.6441 190.854 40.6441H218.284C222.07 40.6441 225.138 38.3583 225.138 35.5386V15.1054C225.138 12.2858 222.07 10 218.284 10Z" fill="#6FCF97"/>
</g>
<path d="M210.311 21.1731H193.98V28.8287H210.311V21.1731Z" fill="white"/>
<path d="M214.713 22.6965L211.108 23.8329V26.2012L214.713 27.3376H216.02V22.6965H214.713Z" fill="white"/>
<path d="M150.39 216.244C149.274 220.608 150.787 223.124 151.978 223.744C154.34 224.974 156.977 226.513 156.977 226.513C156.977 226.513 173.406 254.658 178.168 256.672C183.724 259.022 196.422 260.244 196.422 260.244L201.978 249.133C201.978 249.133 189.279 246.355 183.724 245.164C179.98 244.362 163.486 226.513 163.486 226.513L166.66 220.958H160.708C156.343 217.783 153.977 211.244 153.977 211.244C153.977 211.244 151.153 213.264 150.39 216.244Z" fill="url(#paint0_linear_5_769)"/>
<path d="M215.478 266.744C213.478 264.744 201.978 261.577 196.478 260.244L201.978 249.244C204.144 249.244 210.478 248.744 218.478 246.744C228.478 244.244 231.978 235.244 243.478 244.744C252.678 252.344 268.644 285.577 275.478 301.244C264.731 311.486 257.594 314.812 243.478 317.744C242.644 316.077 240.178 310.444 236.978 301.244C232.978 289.744 220.478 289.744 218.478 285.744C216.478 281.744 217.978 269.244 215.478 266.744Z" fill="url(#paint1_linear_5_769)"/>
<path d="M251.478 380.244C247.878 372.244 247.811 334.244 246.478 316.744C258.671 314.347 265.111 311.259 275.478 300.744C275.478 300.744 292.478 308.744 291.478 327.244C290.478 345.744 297.998 355.085 302.478 361.244C306.478 366.744 315.978 378.41 320.978 386.244L315.978 395.744C310.478 389.91 294.378 378.044 285.978 371.244C277.578 364.444 274.811 347.41 273.478 338.244C272.644 347.91 268.478 365.644 270.478 371.244C272.478 376.844 293.978 393.744 302.478 402.244L299.478 410.744C284.978 403.91 255.078 388.244 251.478 380.244Z" fill="url(#paint2_linear_5_769)"/>
<path d="M209.477 232.744C209.877 231.144 209.311 226.41 209.978 224.744C214.778 225.544 217.477 228.91 218.477 230.244C219.477 230.077 220.912 229.612 221.477 230.744C221.977 231.744 221.477 233.744 219.977 235.244L223.477 244.744C221.819 245.821 220.809 246.183 218.977 246.744C219.977 244.244 219.477 242.244 218.977 241.244C215.377 244.044 213.977 243.91 212.477 243.744L210.977 237.244L208.478 237.744C208.978 236.91 209.077 234.344 209.477 232.744Z" fill="url(#paint3_linear_5_769)"/>
<path d="M218.477 230.244C216.477 227.444 211.644 225.41 209.477 224.744C205.477 221.744 207.477 215.244 216.977 212.244C226.477 209.244 230.477 217.244 232.477 219.244C234.477 221.244 235.477 227.744 244.477 231.744C253.477 235.744 252.977 230.744 258.477 230.744C263.977 230.744 266.477 234.244 265.477 237.244C264.477 240.244 263.977 243.744 269.977 247.744C275.977 251.744 270.477 257.244 269.977 263.244C269.477 269.244 261.477 266.244 252.977 266.244C244.477 266.244 245.977 266.244 244.477 260.744C242.977 255.244 240.477 253.244 237.477 251.744C234.477 250.244 227.477 251.244 225.977 249.744C224.777 248.544 221.477 239.577 219.977 235.244C220.644 234.244 221.877 231.944 221.477 230.744C221.077 229.544 219.311 229.91 218.477 230.244Z" fill="#F2994A"/>
<path d="M199.478 290.744L223.478 289.244C226.278 289.644 230.978 293.077 232.978 294.744C232.311 296.244 230.378 299.244 227.978 299.244C225.578 299.244 207.978 296.244 199.478 294.744H197.478V287.244L199.478 290.744Z" fill="url(#paint4_linear_5_769)"/>
<path d="M197.478 298.244V281.244H188.978V298.244H197.478Z" fill="#F2C94C"/>
<path d="M315.978 424.744C313.578 424.344 303.811 415.077 299.478 410.744L302.478 402.244C304.478 403.077 308.678 404.544 309.478 405.744C310.478 407.244 318.978 425.244 315.978 424.744Z" fill="#5A98D0"/>
<path d="M327.978 413.744C326.778 411.744 319.478 402.077 315.978 395.744L320.978 386.244C323.311 388.244 323.478 388.244 325.978 391.744C327.14 393.371 329.478 416.244 327.978 413.744Z" fill="#5A98D0"/>
<path opacity="0.2" d="M276.478 323.744L273.478 338.744C273.978 344.244 276.978 357.744 281.978 367.244C275.978 348.244 277.978 334.077 276.478 323.744Z" fill="black"/>
<defs>
<filter id="filter0_d_5_769" x="53" y="83.2437" width="188" height="188" filterUnits="userSpaceOnUse" color-interpolation-filters="sRGB">
<feFlood flood-opacity="0" result="BackgroundImageFix"/>
<feColorMatrix in="SourceAlpha" type="matrix" values="0 0 0 0 0 0 0 0 0 0 0 0 0 0 0 0 0 0 127 0" result="hardAlpha"/>
<feOffset/>
<feGaussianBlur stdDeviation="25"/>
<feColorMatrix type="matrix" values="0 0 0 0 0.0627451 0 0 0 0 0.439216 0 0 0 0 0.694118 0 0 0 0.25 0"/>
<feBlend mode="normal" in2="BackgroundImageFix" result="effect1_dropShadow_5_769"/>
<feBlend mode="normal" in="SourceGraphic" in2="effect1_dropShadow_5_769" result="shape"/>
</filter>
<filter id="filter1_d_5_769" x="46.1382" y="0" width="71.1382" height="60.644" filterUnits="userSpaceOnUse" color-interpolation-filters="sRGB">
<feFlood flood-opacity="0" result="BackgroundImageFix"/>
<feColorMatrix in="SourceAlpha" type="matrix" values="0 0 0 0 0 0 0 0 0 0 0 0 0 0 0 0 0 0 127 0" result="hardAlpha"/>
<feOffset dx="5" dy="5"/>
<feGaussianBlur stdDeviation="7.5"/>
<feColorMatrix type="matrix" values="0 0 0 0 0 0 0 0 0 0 0 0 0 0 0 0 0 0 0.15 0"/>
<feBlend mode="normal" in2="BackgroundImageFix" result="effect1_dropShadow_5_769"/>
<feBlend mode="normal" in="SourceGraphic" in2="effect1_dropShadow_5_769" result="shape"/>
</filter>
<filter id="filter2_d_5_769" x="220" y="77.2549" width="71.1382" height="60.644" filterUnits="userSpaceOnUse" color-interpolation-filters="sRGB">
<feFlood flood-opacity="0" result="BackgroundImageFix"/>
<feColorMatrix in="SourceAlpha" type="matrix" values="0 0 0 0 0 0 0 0 0 0 0 0 0 0 0 0 0 0 127 0" result="hardAlpha"/>
<feOffset dx="5" dy="5"/>
<feGaussianBlur stdDeviation="7.5"/>
<feColorMatrix type="matrix" values="0 0 0 0 0 0 0 0 0 0 0 0 0 0 0 0 0 0 0.15 0"/>
<feBlend mode="normal" in2="BackgroundImageFix" result="effect1_dropShadow_5_769"/>
<feBlend mode="normal" in="SourceGraphic" in2="effect1_dropShadow_5_769" result="shape"/>
</filter>
<filter id="filter3_d_5_769" x="0" y="77.2549" width="71.1382" height="60.644" filterUnits="userSpaceOnUse" color-interpolation-filters="sRGB">
<feFlood flood-opacity="0" result="BackgroundImageFix"/>
<feColorMatrix in="SourceAlpha" type="matrix" values="0 0 0 0 0 0 0 0 0 0 0 0 0 0 0 0 0 0 127 0" result="hardAlpha"/>
<feOffset dx="5" dy="5"/>
<feGaussianBlur stdDeviation="7.5"/>
<feColorMatrix type="matrix" values="0 0 0 0 0 0 0 0 0 0 0 0 0 0 0 0 0 0 0.15 0"/>
<feBlend mode="normal" in2="BackgroundImageFix" result="effect1_dropShadow_5_769"/>
<feBlend mode="normal" in="SourceGraphic" in2="effect1_dropShadow_5_769" result="shape"/>
</filter>
<filter id="filter4_d_5_769" x="174" y="0" width="71.1382" height="60.644" filterUnits="userSpaceOnUse" color-interpolation-filters="sRGB">
<feFlood flood-opacity="0" result="BackgroundImageFix"/>
<feColorMatrix in="SourceAlpha" type="matrix" values="0 0 0 0 0 0 0 0 0 0 0 0 0 0 0 0 0 0 127 0" result="hardAlpha"/>
<feOffset dx="5" dy="5"/>
<feGaussianBlur stdDeviation="7.5"/>
<feColorMatrix type="matrix" values="0 0 0 0 0 0 0 0 0 0 0 0 0 0 0 0 0 0 0.15 0"/>
<feBlend mode="normal" in2="BackgroundImageFix" result="effect1_dropShadow_5_769"/>
<feBlend mode="normal" in="SourceGraphic" in2="effect1_dropShadow_5_769" result="shape"/>
</filter>
<linearGradient id="paint0_linear_5_769" x1="209.735" y1="223.819" x2="157.964" y2="257.638" gradientUnits="userSpaceOnUse">
<stop stop-color="#FFF8E1"/>
<stop offset="1" stop-color="#FFCC80"/>
</linearGradient>
<linearGradient id="paint1_linear_5_769" x1="235.978" y1="240.484" x2="235.978" y2="317.744" gradientUnits="userSpaceOnUse">
<stop stop-color="#AF6CED"/>
<stop offset="1" stop-color="#5E199D"/>
</linearGradient>
<linearGradient id="paint2_linear_5_769" x1="283.728" y1="300.744" x2="283.728" y2="410.744" gradientUnits="userSpaceOnUse">
<stop stop-color="#EB5757"/>
<stop offset="1" stop-color="#872727"/>
</linearGradient>
<linearGradient id="paint3_linear_5_769" x1="225.716" y1="230.39" x2="207.595" y2="237.998" gradientUnits="userSpaceOnUse">
<stop stop-color="#FFF8E1"/>
<stop offset="1" stop-color="#FFCC80"/>
</linearGradient>
<linearGradient id="paint4_linear_5_769" x1="238.276" y1="290.323" x2="226.596" y2="311.603" gradientUnits="userSpaceOnUse">
<stop stop-color="#FFF8E1"/>
<stop offset="1" stop-color="#FFCC80"/>
</linearGradient>
</defs>
</svg>
